<?xml version="1.0" encoding="UTF-8"?>
<svg id="Layer_1" xmlns="http://www.w3.org/2000/svg" version="1.1" viewBox="0 0 144.15 101.41">
  <!-- Generator: Adobe Illustrator 29.6.1, SVG Export Plug-In . SVG Version: 2.1.1 Build 9)  -->
  <path d="M141.19,52.7c.08-.12.14-.26.21-.39.09-.16.18-.31.25-.47.07-.17.11-.34.16-.51.04-.14.1-.27.12-.42.13-.65.13-1.31,0-1.96-.03-.15-.08-.28-.12-.42-.05-.17-.09-.35-.16-.51-.07-.17-.16-.32-.25-.47-.07-.13-.13-.26-.21-.39-.18-.27-.39-.53-.62-.76L97.19,3.01c-1.95-1.95-5.12-1.95-7.07,0-1.95,1.95-1.95,5.12,0,7.07l34.85,34.85H13.72V6.54c0-2.76-2.24-5-5-5S3.72,3.78,3.72,6.54v43.38c0,2.76,2.24,5,5,5h116.24l-34.85,34.85c-1.95,1.95-1.95,5.12,0,7.07.98.98,2.26,1.46,3.54,1.46s2.56-.49,3.54-1.46l43.38-43.38c.23-.23.44-.49.62-.76Z"/>
</svg>