<?xml version="1.0" encoding="UTF-8"?>
<svg id="Layer_1" xmlns="http://www.w3.org/2000/svg" version="1.1" viewBox="0 0 386.96 386.96">
  <!-- Generator: Adobe Illustrator 29.6.1, SVG Export Plug-In . SVG Version: 2.1.1 Build 9)  -->
  <defs>
    <style>
      .st0 {
        fill: #f3f3f3;
      }

      .st1 {
        fill: #fe572a;
      }
    </style>
  </defs>
  <circle class="st0" cx="193.13" cy="193.19" r="180.29"/>
  <path class="st1" d="M330.3,56.7C293.76,20.16,245.17.04,193.5.04S93.24,20.16,56.7,56.7C20.16,93.24.04,141.82.04,193.5s20.12,100.26,56.66,136.8c36.54,36.54,85.12,56.66,136.8,56.66s100.26-20.12,136.8-56.66c36.54-36.54,56.66-85.12,56.66-136.8s-20.12-100.26-56.66-136.8ZM29.35,193.5C29.35,102.99,102.99,29.36,193.5,29.36c39.99,0,76.68,14.38,105.18,38.23l-231.1,231.09c-23.85-28.51-38.23-65.19-38.23-105.18ZM193.5,357.64c-39.99,0-76.68-14.38-105.18-38.23l231.09-231.09c23.85,28.51,38.23,65.19,38.23,105.18,0,90.51-73.63,164.15-164.14,164.15Z"/>
  <path class="st1" d="M.04,193.5c0,51.68,20.12,100.26,56.66,136.8,36.54,36.54,85.12,56.66,136.8,56.66s100.26-20.12,136.8-56.66c36.54-36.54,56.66-85.12,56.66-136.8,0-51.68-20.12-100.26-56.66-136.8C293.76,20.16,245.17.04,193.5.04S93.24,20.16,56.7,56.7C20.16,93.24.04,141.83.04,193.5ZM319.41,298.68L88.32,67.59c28.51-23.85,65.19-38.23,105.18-38.23,90.51,0,164.15,73.63,164.15,164.14,0,39.99-14.38,76.68-38.23,105.18ZM29.35,193.5c0-39.99,14.38-76.68,38.23-105.18l231.09,231.09c-28.51,23.85-65.19,38.23-105.18,38.23-90.51,0-164.14-73.64-164.14-164.15Z"/>
</svg>