<?xml version="1.0" encoding="UTF-8"?>
<svg id="Layer_1" xmlns="http://www.w3.org/2000/svg" version="1.1" viewBox="0 0 536.27 205.6">
  <!-- Generator: Adobe Illustrator 29.6.1, SVG Export Plug-In . SVG Version: 2.1.1 Build 9)  -->
  <defs>
    <style>
      .st0 {
        fill: #191919;
      }
    </style>
  </defs>
  <g>
    <path class="st0" d="M96.65,148.22v-60.1h10.91v9.45c1.37-3.15,3.23-5.59,5.57-7.33,2.34-1.74,5.21-2.6,8.6-2.6h8.97v10.18h-10.06c-2.59,0-4.87.73-6.85,2.18-1.98,1.45-3.51,3.78-4.6,6.97-1.09,3.19-1.64,7.41-1.64,12.66v28.59h-10.91Z"/>
    <path class="st0" d="M163.49,149.43c-4.85,0-8.97-.83-12.37-2.48-3.4-1.66-6-3.88-7.8-6.66-1.8-2.79-2.78-5.76-2.95-8.91-.34-6.54,1.76-11.53,6.3-14.96,4.55-3.43,10.66-5.15,18.33-5.15,3.39,0,6.47.24,9.25.73,2.77.49,5.06,1.05,6.87,1.7l-.14-2.67c-.27-5.17-1.83-9.07-4.67-11.69-2.85-2.62-6.53-3.94-11.05-3.94-3.72,0-6.89.77-9.51,2.3-2.63,1.54-4.17,4.12-4.62,7.75h-10.9c.26-4.28,1.55-7.83,3.86-10.66,2.32-2.83,5.29-4.93,8.94-6.3,3.64-1.37,7.57-2.06,11.77-2.06,8.56,0,15.12,2.24,19.68,6.72,4.56,4.48,7.03,10.44,7.42,17.87l.95,18.05c.15,2.91.45,5.05.88,6.42.43,1.37,1.1,2.22,2.01,2.54.9.32,2.12.49,3.66.49h.85l.5,9.45h-2.3c-3.96,0-7.22-.65-9.79-1.94-2.57-1.29-4.4-3.88-5.49-7.75-1.69,3.15-4.12,5.8-7.28,7.94-3.16,2.14-7.28,3.21-12.37,3.21ZM164.72,140.59c3.55,0,6.56-.89,9.01-2.67,2.45-1.77,4.33-4.12,5.63-7.03,1.3-2.91,1.95-5.98,1.94-9.21-1.89-.56-4.18-1.07-6.86-1.51-2.69-.44-5.37-.67-8.03-.67-5.49,0-9.42,1.07-11.77,3.21-2.35,2.14-3.44,4.83-3.27,8.06.15,2.83,1.38,5.17,3.7,7.03,2.32,1.86,5.54,2.79,9.66,2.79Z"/>
    <g>
      <path class="st0" d="M73.48,46.03v102.24h-11.36V46.03"/>
      <path class="st0" d="M26.54,70.69l-4.26-3.7c-3.74-3.25-5.9-7.74-6.08-12.64-.2-5.63,2.17-11.37,6.52-15.73,5.67-5.7,14.39-9.7,26.66-12.24,23.63-4.89,49.85-2.98,71.95,5.23l5.29,1.97-3.93,10.58-5.29-1.97c-20.17-7.49-44.13-9.22-65.73-4.76-10.03,2.08-16.88,5.07-20.95,9.15-2.12,2.13-3.32,4.88-3.23,7.36.06,1.79.81,3.32,2.2,4.53l4.26,3.7-7.4,8.52Z"/>
    </g>
    <path class="st0" d="M191.76,78.33c-28.98-11.85-34.62-8.17-39.15-5.22l-4.81,3.14-6.28-9.62,4.81-3.14c8.32-5.43,17.81-8.87,49.77,4.2l-4.34,10.63Z"/>
    <path class="st0" d="M273.81,148.01h-11.6l.04-10.52c.14-7.07.29-13.74-1.05-20.11-.92-4.36-3.45-12.28-10.13-16.3-1.42-.85-3.63-1.83-6.1-1.66-3.54.23-6.33,2.09-9.29,10.58-4.05,11.65-6.14,25.11-5.91,38.01h-11.13c-7.11-14.23-13.1-32.39-16.96-51.29l11.33-2.28c.25,1.24.51,2.56.77,3.94,1.46,7.5,3.27,16.83,5.42,23.13l.85,2.51.53-2.6c1.05-5.13,2.46-10.26,4.19-15.23,1.66-4.77,6.05-17.41,19.42-18.31,4.35-.29,8.78.84,12.84,3.29,7.72,4.65,13.22,13.12,15.47,23.81,1.63,7.73,1.43,26.4,1.3,33.01Z"/>
    <g>
      <path class="st0" d="M487.21,190.9c-5.4,0-10.34-.93-14.83-2.8-4.49-1.87-8.25-4.57-11.28-8.1-3.03-3.53-4.96-7.83-5.79-12.9h11.09c1.16,4.15,3.63,7.54,7.41,10.16,3.78,2.62,8.2,3.92,13.27,3.92,3.99,0,7.56-.85,10.72-2.56,3.16-1.7,5.67-4.24,7.54-7.6,1.87-3.36,2.8-7.5,2.8-12.4v-23.16c-1.33,2.24-3.1,4.38-5.3,6.42-2.2,2.04-4.82,3.7-7.85,4.98-3.03,1.29-6.54,1.93-10.53,1.93-5.82,0-11.09-1.41-15.82-4.24-4.74-2.82-8.47-6.67-11.21-11.53-2.74-4.86-4.11-10.36-4.11-16.51s1.37-11.75,4.11-16.57c2.74-4.82,6.48-8.62,11.21-11.4,4.73-2.78,10.01-4.17,15.82-4.17,5.4,0,10.15,1.21,14.27,3.61,4.11,2.41,7.25,5.28,9.41,8.6v-10.72h11.21v72.38c0,6.81-1.39,12.65-4.17,17.51-2.78,4.86-6.6,8.6-11.46,11.21-4.86,2.62-10.36,3.92-16.51,3.92ZM486.21,139.08c4.15,0,7.85-.95,11.09-2.87,3.24-1.91,5.77-4.57,7.6-7.97,1.83-3.41,2.74-7.31,2.74-11.71s-.91-8.41-2.74-11.78c-1.83-3.36-4.36-5.98-7.6-7.85-3.24-1.87-6.94-2.8-11.09-2.8s-7.72.93-10.96,2.8c-3.24,1.87-5.79,4.49-7.66,7.85-1.87,3.36-2.8,7.29-2.8,11.78s.93,8.2,2.8,11.65c1.87,3.45,4.42,6.13,7.66,8.04,3.24,1.91,6.89,2.87,10.96,2.87Z"/>
      <path class="st0" d="M405.3,149.99c-35.78,0-57.86-48.18-69.5-84.87l-2.05,79.16-11.48-.3,3.12-120.62,11.39-.87c6.2,34.29,31.39,121.94,72.97,115.69,10.22-1.53,16.75-6.37,19.95-14.78,6.9-18.13-3.51-48.37-17.56-65.23-6.31-7.57-12.72-11.6-17.13-10.79-13.75,2.35-14.61,18.42-14.64,19.11l-.25,5.71-11.42-.42.2-5.71c.31-9,5.76-26.85,24.11-29.99,8.74-1.61,18.69,3.62,27.96,14.75,16.06,19.27,28.07,54.07,19.47,76.67-4.68,12.28-14.7,19.91-28.98,22.05-2.09.31-4.15.46-6.16.46Z"/>
    </g>
  </g>
  <path class="st0" d="M518.11,55.79c0,1.94-.43,8.58-6.17,12.87-2.84,2.13-6.19,3.16-6.23,3.17-2.19.66-4.62,1-7.22,1-3.69,0-6.89-.54-9.53-1.61-2.66-1.08-5.11-2.23-7.29-3.43-2.33-1.29-4.71-1.94-7.06-1.94s-4.27.64-5.9,1.88c-1.49,1.12-2.46,2.78-2.91,4.95h-10.97c1.17-5.41,3.34-9.4,6.48-11.89,3.47-2.73,7.68-4.07,12.88-4.07,3.67,0,6.87.57,9.51,1.7,2.69,1.14,5.23,2.32,7.55,3.51,2.44,1.28,4.87,1.93,7.24,1.93s4.54-.66,6.25-1.96c1.8-1.37,2.8-3.39,2.96-6.03v-.16c-.16-2.64-1.16-4.67-2.96-6.02-1.41-1.08-3.09-1.72-5-1.91v-9c2.13.09,4.13.41,5.97.97.02,0,.86.27,2.06.79,1.2.53,2.75,1.32,4.17,2.38,5.74,4.28,6.17,10.93,6.17,12.87Z"/>
</svg>