<?xml version="1.0" encoding="UTF-8"?>
<svg id="Layer_1" xmlns="http://www.w3.org/2000/svg" version="1.1" viewBox="0 0 315.71 173.56">
  <!-- Generator: Adobe Illustrator 29.6.1, SVG Export Plug-In . SVG Version: 2.1.1 Build 9)  -->
  <defs>
    <style>
      .st0 {
        fill: #6b69e9;
      }
    </style>
  </defs>
  <path class="st0" d="M315.47,86.78c.03,9.87-2.15,43.78-31.6,65.77-14.39,10.75-31.27,15.94-31.44,15.99-11.01,3.33-23.19,5.02-36.19,5.02-18.37,0-34.42-2.73-47.69-8.11-13.02-5.27-25.02-10.92-35.67-16.79-10.57-5.82-21.31-8.77-31.91-8.77-10.01,0-18.68,2.75-25.75,8.16-7.03,5.31-11.37,13.64-12.92,24.78H0c5.51-29.94,16.93-51.95,33.95-65.45,17.34-13.69,39.2-20.62,64.99-20.62,18.35,0,34.39,2.86,47.67,8.52,13.1,5.55,25.49,11.31,36.81,17.12,11.12,5.85,22.16,8.82,32.82,8.82s19.97-2.89,27.43-8.59c7.6-5.73,11.81-14.4,12.51-25.76v-.09s0-.1,0-.1c-.7-11.36-4.91-20.03-12.5-25.75-7.12-5.44-15.85-8.31-25.94-8.57V0c12.43.13,24.09,1.81,34.67,5.02.08.03,4.35,1.33,10.4,3.98,6.04,2.65,13.86,6.63,21.06,12.01,29.45,21.96,31.63,55.89,31.6,65.77Z"/>
</svg>